<svg width='24' height='24' viewBox='0 0 24 24' xmlns='http://www.w3.org/2000/svg' xmlns:xlink='http://www.w3.org/1999/xlink'><rect width='24' height='24' stroke='none' fill='#000000' opacity='0'/>


<g transform="matrix(0.48 0 0 0.48 12 12)" >
<path style="stroke: none; stroke-width: 1; stroke-dasharray: none; stroke-linecap: butt; stroke-dashoffset: 0; stroke-linejoin: miter; stroke-miterlimit: 4; fill: rgb(255,255,255); fill-rule: nonzero; opacity: 1;" transform=" translate(-24, -24)" d="M 8.5 7 C 5.4802259 7 3 9.4802259 3 12.5 L 3 35.5 C 3 38.519774 5.4802259 41 8.5 41 L 39.5 41 C 42.519774 41 45 38.519774 45 35.5 L 45 12.5 C 45 9.4802259 42.519774 7 39.5 7 L 8.5 7 z M 8.5 10 L 39.5 10 C 40.898226 10 42 11.101774 42 12.5 L 42 35.5 C 42 36.898226 40.898226 38 39.5 38 L 28 38 L 28 29.5 C 28 26.462 25.538 24 22.5 24 L 6 24 L 6 12.5 C 6 11.101774 7.1017741 10 8.5 10 z M 37.470703 12.986328 C 37.41711169755594 12.988019929741082 37.36364964107888 12.992583812681179 37.310547 13 L 32.5 13 C 31.959046125133643 12.992349565681769 31.455877953142583 13.276562944253993 31.183168417770215 13.743809274571493 C 30.910458882397847 14.211055604888992 30.910458882397847 14.788944395111006 31.183168417770215 15.256190725428507 C 31.455877953142583 15.723437055746007 31.959046125133643 16.007650434318233 32.5 16 L 33.878906 16 L 28.439453 21.439453 C 28.04760650892017 21.81568119512626 27.88976557766029 22.37434971051894 28.02680278146244 22.90000371473999 C 28.16383998526459 23.425657718961045 28.574342281038955 23.83616001473541 29.09999628526001 23.97319721853756 C 29.62565028948106 24.11023442233971 30.18431880487374 23.95239349107983 30.560547 23.560547 L 36 18.121094 L 36 19.5 C 35.99234956568177 20.040953874866357 36.276562944253996 20.544122046857417 36.74380927457149 20.816831582229785 C 37.21105560488899 21.089541117602153 37.78894439511101 21.089541117602153 38.25619072542851 20.816831582229785 C 38.72343705574601 20.544122046857417 39.00765043431823 20.040953874866357 39 19.5 L 39 14.673828 C 39.05483426042277 14.239513635260415 38.9172227106767 13.802914820145872 38.6232568615915 13.478538737323976 C 38.329291012506296 13.154162654502079 37.90830199667597 12.974374689017317 37.470703 12.986328 z" stroke-linecap="round" />
</g>
</svg>