<?xml version="1.0" encoding="UTF-8"?>
<svg width="24px" height="24px" viewBox="0 0 24 24" version="1.1" xmlns="http://www.w3.org/2000/svg" xmlns:xlink="http://www.w3.org/1999/xlink">
    <title>Iconly/Light-Outline/Volume Off</title>
    <g id="Iconly/Light-Outline/Volume-Off" stroke="none" stroke-width="1" fill="none" fill-rule="evenodd">
        <g id="Volume-Off" transform="translate(3.000000, 3.000000)" fill="#FFF">
            <path d="M17.280216,0.21975 C17.573216,0.51275 17.573216,0.98675 17.280216,1.27975 L11.8169291,6.74331107 C11.8156963,6.74456113 11.8144586,6.74580745 11.813216,6.74705 L4.994216,13.56705 L4.988,13.572 L1.281216,17.27975 C1.135216,17.42675 0.943216,17.49975 0.751216,17.49975 C0.559216,17.49975 0.367216,17.42675 0.221216,17.27975 C-0.071784,16.98675 -0.071784,16.51275 0.221216,16.21975 L2.88020814,13.5603563 C2.20179374,13.5282559 1.62702369,13.4396923 0.972216,12.88005 C0.090216,12.12585 0.005256,10.62888 2.54371177e-14,9.308409 L0.000216,8.87605 L0.000216,8.87605 L0.001216,8.63305 L0.000216,8.39105 L1.00000003e-06,7.958664 C0.005266,6.63804 0.090316,5.14035 0.973216,4.38705 C1.713216,3.75405 2.347216,3.73005 3.148216,3.70005 C3.369216,3.69105 3.618216,3.68205 3.910216,3.65905 C4.161216,3.62705 4.890216,3.02705 5.372216,2.63105 C6.778216,1.47205 8.705216,-0.11395 10.507216,0.95405 C10.540216,0.97205 10.571216,0.99405 10.600216,1.01805 C11.4637174,1.72098933 11.8054889,2.79752034 11.9488112,4.49067032 L16.220216,0.21975 C16.513216,-0.07325 16.987216,-0.07325 17.280216,0.21975 Z M11.292616,9.91675 C11.706616,9.92275 12.038616,10.26275 12.032616,10.67675 C11.994616,13.63175 11.762616,15.30475 10.599616,16.24975 C10.569616,16.27275 10.539616,16.29475 10.507616,16.31275 C10.083616,16.56375 9.653616,16.66575 9.232616,16.66575 C8.222616,16.66575 7.263616,16.08075 6.552616,15.56575 C6.216616,15.32375 6.141616,14.85475 6.383616,14.51975 C6.627616,14.18375 7.096616,14.10675 7.431616,14.35175 C8.744616,15.30075 9.336616,15.23775 9.695616,15.04975 C10.277616,14.53075 10.498616,13.36275 10.532616,10.65675 C10.538616,10.24275 10.841616,9.92075 11.292616,9.91675 Z M9.230216,2.11105 C8.364216,2.11105 7.251216,3.02705 6.325216,3.78905 C5.435216,4.52105 4.733216,5.09905 4.028216,5.15505 C3.713216,5.17905 3.443216,5.19005 3.205216,5.19905 C2.466216,5.22605 2.279216,5.24405 1.947216,5.52805 C1.494216,5.91505 1.498216,7.46305 1.500216,8.38705 L1.501216,8.63305 L1.500216,8.88005 C1.498216,9.80405 1.494216,11.35205 1.947216,11.73905 C2.286216,12.02905 2.478216,12.04705 3.235216,12.07305 C3.464216,12.08105 3.723216,12.09005 4.022216,12.11105 C4.108216,12.11705 4.196216,12.13105 4.286216,12.15305 L10.524216,5.91505 C10.451216,3.69005 10.226216,2.69205 9.696216,2.21805 C9.552216,2.14405 9.396216,2.11105 9.230216,2.11105 Z" id="Combined-Shape"></path>
        </g>
    </g>
</svg>