<?xml version="1.0" encoding="UTF-8"?>
<svg width="24px" height="24px" viewBox="0 0 24 24" version="1.1" xmlns="http://www.w3.org/2000/svg" xmlns:xlink="http://www.w3.org/1999/xlink">
    <title>Iconly/Light-Outline/Volume Up</title>
    <g id="Iconly/Light-Outline/Volume-Up" stroke="none" stroke-width="1" fill="none" fill-rule="evenodd">
        <g id="Volume-Up" transform="translate(2.000000, 4.000000)" fill="#FFF">
            <path d="M10.473886,0.335374341 C10.504886,0.354374341 10.535886,0.374374341 10.563886,0.397374341 C11.9156436,1.45919252 12.0149053,3.43311355 12.0196799,7.37502256 L12.019886,7.75037434 C12.019886,11.9443743 11.957886,14.0093743 10.563886,15.1053743 C10.535886,15.1273743 10.504886,15.1483743 10.472886,15.1663743 C10.058886,15.4023743 9.637886,15.5023743 9.217886,15.5023743 C7.826886,15.5023743 6.447886,14.4073743 5.373886,13.5553743 C4.888886,13.1703743 4.155886,12.5883743 3.902886,12.5623743 C3.615886,12.5403743 3.367886,12.5313743 3.148886,12.5253743 C2.350886,12.4963743 1.719886,12.4753743 0.977886,11.8633743 C0.085086,11.1280743 0.003096,9.67106434 3.64410108e-14,8.38682734 L0.000886,7.96637434 L0.000886,7.96637434 L0.001886,7.75037434 L0.000886,7.53437434 L3.64409566e-14,7.11394934 C0.003096,5.82987434 0.085086,4.37367434 0.977886,3.63837434 C1.720886,3.02637434 2.352886,3.00437434 3.152886,2.97737434 C3.370886,2.96937434 3.617886,2.96137434 3.904886,2.94037434 C4.155886,2.91337434 4.888886,2.33137434 5.373886,1.94637434 C6.772886,0.835374341 8.688886,-0.681625659 10.473886,0.335374341 Z M18.449386,1.22717434 C21.162386,5.13117434 21.162386,10.3741743 18.449386,14.2751743 C18.303386,14.4841743 18.070386,14.5961743 17.833386,14.5961743 C17.685386,14.5961743 17.536386,14.5521743 17.405386,14.4611743 C17.065386,14.2251743 16.981386,13.7581743 17.218386,13.4171743 C19.611386,9.97717434 19.611386,5.52817434 17.218386,2.08217434 C16.981386,1.74217434 17.065386,1.27517434 17.406386,1.03817434 C17.746386,0.801174341 18.212386,0.886174341 18.449386,1.22717434 Z M9.207886,1.50637434 C8.339886,1.50637434 7.229886,2.38737434 6.305886,3.12137434 C5.416886,3.82637434 4.714886,4.38437434 4.014886,4.43637434 C3.704886,4.45837434 3.438886,4.46837434 3.204886,4.47637434 C2.457886,4.50137434 2.268886,4.51837434 1.931886,4.79637434 C1.545136,5.11399934 1.50215163,6.28912434 1.50012819,7.17082356 L1.500886,7.52737434 L1.500886,7.52737434 L1.501886,7.74837434 L1.501886,7.75237434 L1.500886,7.97337434 L1.50012819,8.3302552 C1.50215163,9.21262434 1.545136,10.3877493 1.931886,10.7053743 C2.267886,10.9833743 2.456886,10.9993743 3.201886,11.0263743 C3.436886,11.0333743 3.703886,11.0433743 4.014886,11.0663743 C4.714886,11.1173743 5.416886,11.6753743 6.305886,12.3803743 C7.408886,13.2553743 8.774886,14.3403743 9.680886,13.8893743 C10.4144344,13.2535679 10.5139557,11.6016324 10.5196131,8.10610322 L10.519886,7.75037434 C10.519886,4.01037434 10.438886,2.26937434 9.680886,1.61137434 C9.533886,1.53837434 9.374886,1.50637434 9.207886,1.50637434 Z M15.981386,3.69207434 C17.416386,6.20007434 17.416386,9.31007434 15.981386,11.8100743 C15.842386,12.0520743 15.590386,12.1870743 15.330386,12.1870743 C15.203386,12.1870743 15.075386,12.1550743 14.957386,12.0870743 C14.598386,11.8810743 14.474386,11.4220743 14.680386,11.0640743 C15.851386,9.02307434 15.851386,6.48507434 14.680386,4.43807434 C14.474386,4.07807434 14.599386,3.62007434 14.958386,3.41407434 C15.318386,3.21207434 15.775386,3.33307434 15.981386,3.69207434 Z" id="Combined-Shape"></path>
        </g>
    </g>
</svg>